<?xml version="1.0" encoding="UTF-8" standalone="no"?>
<!-- Created with Inkscape (http://www.inkscape.org/) -->

<svg
   width="210mm"
   height="297mm"
   viewBox="0 0 210 297"
   version="1.1"
   id="svg5"
   inkscape:version="1.1 (c68e22c387, 2021-05-23)"
   sodipodi:docname="text.svg"
   xmlns:inkscape="http://www.inkscape.org/namespaces/inkscape"
   xmlns:sodipodi="http://sodipodi.sourceforge.net/DTD/sodipodi-0.dtd"
   xmlns="http://www.w3.org/2000/svg"
   xmlns:svg="http://www.w3.org/2000/svg">
  <sodipodi:namedview
     id="namedview7"
     pagecolor="#ffffff"
     bordercolor="#666666"
     borderopacity="1.0"
     inkscape:pageshadow="2"
     inkscape:pageopacity="0.0"
     inkscape:pagecheckerboard="0"
     inkscape:document-units="mm"
     showgrid="false"
     inkscape:zoom="0.67081229"
     inkscape:cx="397.27954"
     inkscape:cy="560.51448"
     inkscape:window-width="1920"
     inkscape:window-height="1017"
     inkscape:window-x="-8"
     inkscape:window-y="-8"
     inkscape:window-maximized="1"
     inkscape:current-layer="layer1" />
  <defs
     id="defs2" />
  <g
     inkscape:label="图层 1"
     inkscape:groupmode="layer"
     id="layer1">
    <g
       aria-label="I love Nanan"
       id="text1910"
       style="font-size:22.5778px;line-height:1.25;stroke-width:0.264583">
      <path
         d="m 18.401979,8.2300822 q -1.080383,0.4409727 -1.962329,0.4409727 -0.540191,0 -1.234723,-0.2535593 -0.694532,-0.2645836 -1.04731,-0.2645836 -0.826824,0 -1.45521,0.628386 -0.628386,0.6283861 -0.628386,1.45521 0,0.738629 0.705556,1.212675 0.363803,0.275608 0.363803,0.474045 0,0.33073 -0.429949,0.8158 -0.429948,0.474045 -0.815799,0.474045 -0.440973,0 -0.804775,-0.595313 -0.363803,-0.595313 -0.363803,-1.344966 0,-1.6536479 1.587502,-3.2742224 1.587502,-1.6205746 3.197052,-1.6205746 0.474045,0 1.234723,0.2756079 0.760678,0.2645836 1.311894,0.2645836 0.595313,0 1.135505,-0.3858511 0.242535,-0.1543404 0.374826,-0.1543404 0.165365,0 0.440973,0.1763891 0.286632,0.1653647 0.286632,0.3638024 0,0.1102432 -0.584288,0.7606779 -0.881946,0.9591155 -1.2237,2.1056445 -0.341753,1.1355051 -0.694532,3.5167571 -0.352778,2.381252 -0.782726,3.891584 -0.418924,1.499307 -1.311894,2.723006 -0.881945,1.212675 -2.083596,1.819012 -1.20165,0.606338 -2.623787,0.606338 -1.6867205,0 -2.7230063,-0.771702 -1.0252614,-0.782727 -1.0252614,-1.488283 0,-0.4079 0.7937508,-1.091408 0.7937508,-0.694532 1.0362857,-0.694532 0.3197052,0 0.3968754,0.231511 0.07717,0.231511 0.07717,0.804775 0,0.97014 0.4299483,1.565453 0.4409722,0.584289 1.1465292,0.584289 1.04731,0 1.774915,-1.102432 0.738629,-1.102431 1.20165,-4.023875 0.463022,-2.921444 1.245748,-4.486897 0.782727,-1.565453 3.053736,-3.6380248 z"
         style="font-weight:bold;font-family:'Script MT Bold';-inkscape-font-specification:'Script MT Bold,  Bold'"
         id="path17094" />
      <path
         d="m 33.527342,19.651274 q -1.499307,1.37804 -2.634812,2.039499 -1.12448,0.650435 -2.149742,0.650435 -1.179602,0 -1.907206,-0.915019 -0.716581,-0.915018 -0.716581,-2.458422 0,-2.315107 1.003213,-5.556256 1.003213,-3.241149 2.436374,-5.9751796 l 2.800176,-1.0362858 q 0.132292,-0.044097 0.198438,-0.044097 0.319705,0 0.518143,0.4740456 0.209462,0.4630213 0.209462,1.2567721 0,2.2489609 -1.036286,4.3546049 -1.036286,2.105645 -3.241149,4.497921 -0.08819,1.146529 -0.08819,1.576478 0,0.959115 0.352779,1.521355 0.352778,0.562241 0.937066,0.562241 0.595314,0 1.267797,-0.429949 0.672483,-0.429948 2.050523,-1.785939 z m -4.222314,-4.310507 q 1.400089,-1.554429 2.27101,-3.483685 0.870921,-1.929255 0.870921,-3.3183189 0,-0.4078997 -0.121268,-0.6504347 -0.121267,-0.2535593 -0.308681,-0.2535593 -0.407899,0 -1.190626,2.0284743 -0.771702,2.0284746 -1.521356,5.6775236 z"
         style="font-weight:bold;font-family:'Script MT Bold';-inkscape-font-specification:'Script MT Bold,  Bold'"
         id="path17096" />
      <path
         d="m 43.427178,19.651274 q -0.56224,0.496095 -1.091407,0.705557 -0.529167,0.198437 -0.837848,0.198437 -0.793751,0 -1.576478,-0.617361 -1.587501,2.403301 -3.638024,2.403301 -1.278821,0 -2.072572,-0.959116 -0.79375,-0.959115 -0.79375,-2.546617 0,-2.513544 1.785939,-4.310508 1.785939,-1.807988 4.26641,-1.807988 0.937067,0 1.367016,0.209462 0.440972,0.198438 0.540191,0.474046 0.09922,0.275608 0.09922,0.694532 0,2.061547 -1.12448,5.060161 0.56224,0.518143 1.179602,0.518143 0.738629,0 1.896182,-1.289845 z m -3.638024,-6.162593 q -0.165365,-0.06615 -0.474046,-0.06615 -1.433161,0 -2.248961,1.499307 -0.804775,1.499308 -0.804775,3.505733 0,1.113456 0.352778,1.730818 0.352779,0.617362 0.981165,0.617362 0.782726,0 1.697744,-1.444186 -1.036285,-1.300869 -1.036285,-2.800176 0,-1.763891 1.53238,-3.042712 z"
         style="font-weight:bold;font-family:'Script MT Bold';-inkscape-font-specification:'Script MT Bold,  Bold'"
         id="path17098" />
      <path
         d="m 53.315991,19.651274 q -0.507118,0.440973 -1.025261,0.628386 -0.518143,0.187414 -0.804775,0.187414 -0.804776,0 -1.587502,-0.617362 -1.962328,2.491496 -4.156167,2.491496 -1.146529,0 -1.796964,-0.782727 -0.63941,-0.793751 -0.63941,-2.204863 0,-1.554429 0.771702,-3.814414 l 0.771702,-2.259985 2.998614,-0.56224 -1.333942,3.979778 q -0.209462,0.650435 -0.396876,1.543405 -0.187413,0.892969 -0.187413,1.278821 0,0.595313 0.308681,1.003212 0.319705,0.396876 0.771702,0.396876 1.058334,0 2.282034,-1.807988 -0.562241,-1.12448 -0.562241,-2.259985 0,-1.576477 0.826824,-2.844274 0.837848,-1.267796 1.830037,-1.267796 0.749653,0 0.749653,1.157553 0,2.237936 -1.807988,5.170405 0.56224,0.518142 1.179602,0.518142 0.749654,0 1.807988,-1.20165 z"
         style="font-weight:bold;font-family:'Script MT Bold';-inkscape-font-specification:'Script MT Bold,  Bold'"
         id="path17100" />
      <path
         d="m 61.551157,19.651274 q -1.400089,1.37804 -2.513545,2.039499 -1.113456,0.650435 -2.458422,0.650435 -1.499307,0 -2.42535,-0.959116 -0.915018,-0.959115 -0.915018,-2.524568 0,-2.337156 1.620574,-4.222314 1.620575,-1.896182 3.593928,-1.896182 1.025261,0 1.642623,0.529167 0.617362,0.529167 0.617362,1.389064 0,2.282033 -4.8507,3.70417 0.440973,2.149742 2.304082,2.149742 0.727605,0 1.389064,-0.385851 0.661459,-0.396875 1.995402,-1.741842 z m -5.776742,-2.039498 q 2.822225,-0.793751 2.822225,-2.932468 0,-1.058335 -0.771702,-1.058335 -0.727605,0 -1.389064,1.113456 -0.661459,1.102432 -0.661459,2.877347 z"
         style="font-weight:bold;font-family:'Script MT Bold';-inkscape-font-specification:'Script MT Bold,  Bold'"
         id="path17102" />
      <path
         d="m 80.909854,19.044937 q 0.926043,-2.359204 1.807988,-6.868149 0.617362,-3.2852468 1.444186,-4.5420189 0.826823,-1.2567721 1.940279,-1.2567721 0.903994,0 0.903994,1.0362858 0,0.5953131 -0.23151,0.8488724 -0.220487,0.2425349 -0.926043,0.3417538 -0.705556,0.099219 -1.267796,0.7827265 -0.56224,0.6835075 -1.036286,2.8222255 l -0.804775,3.671097 q -0.429949,1.907207 -0.97014,3.329344 -0.540192,1.422137 -0.903994,2.105644 -0.363802,0.683508 -0.474046,0.760678 -0.110243,0.07717 -0.551215,0.121268 l -1.190627,0.143316 q -0.418924,0.02205 -0.463021,-0.165365 -0.03307,-0.187413 -0.110243,-1.422137 -0.06615,-1.234723 -0.154341,-1.841061 -0.08819,-0.617362 -0.63941,-3.340368 -0.551216,-2.723006 -0.738629,-5.501134 -0.07717,0.0441 -0.926043,3.130906 -0.837848,3.075784 -1.157553,4.123095 -0.308681,1.036285 -0.870921,2.226912 -0.56224,1.179601 -1.444186,1.984377 -0.881945,0.804775 -2.09462,0.804775 -1.058334,0 -1.708769,-0.661459 -0.63941,-0.672484 -0.63941,-1.245748 0,-0.352778 0.771702,-1.069359 0.782726,-0.727605 1.102432,-0.727605 0.352778,0 0.440972,0.782727 0.08819,0.771702 0.385851,1.157553 0.308681,0.385851 0.727605,0.385851 1.642623,0 3.230125,-6.261812 l 0.33073,-1.333942 q 0.937067,-3.6159761 1.499307,-5.2365506 l 0.352778,-1.0362858 q 0.121267,-0.3417538 0.23151,-0.4189241 0.121268,-0.07717 0.584289,-0.1433161 L 78.517578,6.377997 q 0.253559,-0.044097 0.385851,-0.044097 0.242535,0 0.319705,0.1212675 0.07717,0.1212675 0.07717,0.4630213 0,2.3922768 0.727605,6.4271765 0.738629,4.0349 0.881945,5.699572 z"
         style="font-weight:bold;font-family:'Script MT Bold';-inkscape-font-specification:'Script MT Bold,  Bold'"
         id="path17104" />
      <path
         d="m 96.795903,19.651274 q -1.763891,1.675697 -2.524569,2.182815 -0.760678,0.507119 -1.45521,0.507119 -1.741842,0 -1.642623,-3.075785 -1.102431,1.576478 -2.039498,2.326131 -0.926043,0.749654 -1.918232,0.749654 -0.970139,0 -1.653647,-0.903994 -0.672483,-0.915019 -0.672483,-2.237937 0,-1.653647 0.903994,-3.152954 0.915018,-1.499307 2.337155,-2.42535 1.422137,-0.926042 2.513544,-0.926042 1.37804,0 1.929255,1.267796 l 2.248961,-1.245748 h 0.617362 l -0.97014,3.230125 q -0.749654,2.436374 -0.749654,3.340368 0,0.948091 0.672484,0.948091 0.429948,0 0.948091,-0.451997 0.518143,-0.463021 1.45521,-1.400088 z m -8.0698,0.606338 q 1.102432,0 2.072571,-1.874134 0.981165,-1.885158 0.981165,-3.47266 0,-0.617362 -0.275608,-0.959115 -0.275608,-0.352779 -0.73863,-0.352779 -1.102431,0 -2.09462,1.874134 -0.981164,1.874134 -0.981164,3.450611 0,0.595314 0.286632,0.97014 0.297657,0.363803 0.749654,0.363803 z"
         style="font-weight:bold;font-family:'Script MT Bold';-inkscape-font-specification:'Script MT Bold,  Bold'"
         id="path17106" />
      <path
         d="m 107.61075,19.651274 q -2.54662,2.689934 -4.36563,2.689934 -0.73863,0 -1.19062,-0.518143 -0.452,-0.518143 -0.452,-1.389064 0,-1.179602 0.97014,-3.604952 0.51814,-1.300869 0.51814,-1.653647 0,-0.352778 -0.27561,-0.352778 -0.15434,0 -0.4079,0.15434 -0.23151,0.154341 -0.54019,0.429948 -0.27561,0.25356 -0.61736,0.617362 -0.29766,0.308681 -0.63941,0.705556 l -0.617362,0.716581 q -0.4079,0.496094 -0.507118,1.04731 -0.165365,0.937067 -0.220487,1.719794 -0.03307,0.584288 -0.03307,1.576477 l -2.436374,0.573264 q -0.121267,-1.488282 -0.121267,-2.215887 0,-1.774915 0.407899,-3.362417 0.418925,-1.587502 1.333943,-3.571879 l 2.689929,-0.518142 q -0.84887,2.282033 -1.113452,3.593927 1.807992,-2.01745 2.866322,-2.789152 1.06936,-0.782727 1.89618,-0.782727 0.56224,0 0.93707,0.429948 0.37483,0.418925 0.37483,1.058335 0,1.058334 -0.94809,3.483684 -0.65044,1.664672 -0.65044,2.160766 0,0.661459 0.54019,0.661459 0.80478,0 2.60174,-2.127693 z"
         style="font-weight:bold;font-family:'Script MT Bold';-inkscape-font-specification:'Script MT Bold,  Bold'"
         id="path17108" />
      <path
         d="m 119.3737,19.651274 q -1.76389,1.675697 -2.52457,2.182815 -0.76068,0.507119 -1.45521,0.507119 -1.74184,0 -1.64262,-3.075785 -1.10243,1.576478 -2.0395,2.326131 -0.92604,0.749654 -1.91823,0.749654 -0.97014,0 -1.65365,-0.903994 -0.67248,-0.915019 -0.67248,-2.237937 0,-1.653647 0.90399,-3.152954 0.91502,-1.499307 2.33716,-2.42535 1.42213,-0.926042 2.51354,-0.926042 1.37804,0 1.92926,1.267796 l 2.24896,-1.245748 h 0.61736 l -0.97014,3.230125 q -0.74965,2.436374 -0.74965,3.340368 0,0.948091 0.67248,0.948091 0.42995,0 0.94809,-0.451997 0.51814,-0.463021 1.45521,-1.400088 z m -8.0698,0.606338 q 1.10243,0 2.07257,-1.874134 0.98117,-1.885158 0.98117,-3.47266 0,-0.617362 -0.27561,-0.959115 -0.27561,-0.352779 -0.73863,-0.352779 -1.10243,0 -2.09462,1.874134 -0.98117,1.874134 -0.98117,3.450611 0,0.595314 0.28664,0.97014 0.29765,0.363803 0.74965,0.363803 z"
         style="font-weight:bold;font-family:'Script MT Bold';-inkscape-font-specification:'Script MT Bold,  Bold'"
         id="path17110" />
      <path
         d="m 130.18856,19.651274 q -2.54662,2.689934 -4.36563,2.689934 -0.73863,0 -1.19063,-0.518143 -0.452,-0.518143 -0.452,-1.389064 0,-1.179602 0.97014,-3.604952 0.51815,-1.300869 0.51815,-1.653647 0,-0.352778 -0.27561,-0.352778 -0.15434,0 -0.4079,0.15434 -0.23151,0.154341 -0.54019,0.429948 -0.27561,0.25356 -0.61737,0.617362 -0.29765,0.308681 -0.63941,0.705556 l -0.61736,0.716581 q -0.4079,0.496094 -0.50712,1.04731 -0.16536,0.937067 -0.22048,1.719794 -0.0331,0.584288 -0.0331,1.576477 l -2.43637,0.573264 q -0.12127,-1.488282 -0.12127,-2.215887 0,-1.774915 0.4079,-3.362417 0.41893,-1.587502 1.33395,-3.571879 l 2.68993,-0.518142 q -0.84887,2.282033 -1.11346,3.593927 1.80799,-2.01745 2.86633,-2.789152 1.06935,-0.782727 1.89618,-0.782727 0.56224,0 0.93706,0.429948 0.37483,0.418925 0.37483,1.058335 0,1.058334 -0.94809,3.483684 -0.65043,1.664672 -0.65043,2.160766 0,0.661459 0.54019,0.661459 0.80477,0 2.60174,-2.127693 z"
         style="font-weight:bold;font-family:'Script MT Bold';-inkscape-font-specification:'Script MT Bold,  Bold'"
         id="path17112" />
    </g>
    <g
     inkscape:label="图层 1"
     inkscape:groupmode="layer"
     id="layer1">
    <path
       style="fill:none;stroke:#000000;stroke-width:0.264583px;stroke-linecap:butt;stroke-linejoin:miter;stroke-opacity:1"
       d="m 51.274899,24.05976 c 0,0 22.72148,-37.02175 42.59761,-8.282868 19.507411,28.20575 -30.24715,61.262299 -43.38646,65.474099 C 38.163373,76.382481 -12.839137,42.149005 9.8605568,13.410358 29.345571,-11.258384 51.274899,24.05976 51.274899,24.05976 Z"
       id="path44"
       sodipodi:nodetypes="cscsc" />
  </g>
  </g>
</svg>
