<?xml version="1.0" encoding="UTF-8" standalone="no"?>
<!-- Created with Inkscape (http://www.inkscape.org/) -->

<svg
   sodipodi:docname="icon_bilibili-square.svg"
   viewBox="0 0 200 200"
   height="200"
   width="200"
   id="svg2"
   version="1.1"
   inkscape:version="1.1 (c68e22c387, 2021-05-23)"
   xmlns:inkscape="http://www.inkscape.org/namespaces/inkscape"
   xmlns:sodipodi="http://sodipodi.sourceforge.net/DTD/sodipodi-0.dtd"
   xmlns="http://www.w3.org/2000/svg"
   xmlns:svg="http://www.w3.org/2000/svg">
  <defs
     id="defs6" />
  <sodipodi:namedview
     id="namedview4"
     pagecolor="#ffffff"
     bordercolor="#666666"
     borderopacity="1.0"
     inkscape:pageshadow="2"
     inkscape:pageopacity="0.0"
     inkscape:pagecheckerboard="0"
     showgrid="false"
     inkscape:zoom="1.8793684"
     inkscape:cx="197.67279"
     inkscape:cy="82.740562"
     inkscape:window-width="1368"
     inkscape:window-height="842"
     inkscape:window-x="-7"
     inkscape:window-y="-7"
     inkscape:window-maximized="1"
     inkscape:current-layer="g8" />
  <g
     inkscape:groupmode="layer"
     inkscape:label="Image"
     id="g8">
    <path
       style="fill:#000000"
       d="m 41.309848,176.80781 c -6.517042,-1.45427 -13.515815,-8.77601 -14.998798,-15.69092 -1.546175,-7.20957 -1.546175,-111.024214 0,-118.233776 1.58024,-7.368407 8.396219,-14.184386 15.764628,-15.764626 7.20956,-1.546175 111.024202,-1.546175 118.233772,0 7.3684,1.58024 14.18438,8.396219 15.76462,15.764626 1.54618,7.209562 1.54618,111.024206 0,118.233776 -1.58024,7.3684 -8.39622,14.18438 -15.76462,15.76462 -6.62061,1.41987 -112.600642,1.35423 -118.999602,-0.0737 z m 38.69811,-27.52895 1.98222,-2.72114 20.101192,-0.39562 c 15.9355,-0.31363 20.10119,-0.1287 20.10119,0.8924 0,2.34237 3.26424,4.9455 6.2015,4.9455 2.16542,0 3.31929,-0.75175 4.59501,-2.99368 1.45629,-2.55924 2.29877,-2.99459 5.80561,-3 4.99118,-0.008 9.9653,-3.10967 12.84381,-8.00972 1.93993,-3.30231 2.05407,-5.05245 2.05407,-31.4966 0,-27.480002 -0.0427,-28.068706 -2.30041,-31.699593 C 147.24092,68.124244 144.1739,67 130.11212,67 h -12.34438 l 4.71241,-4.784349 c 4.94483,-5.020322 5.69301,-7.156935 3.22375,-9.206242 -1.23785,-1.027326 -2.64636,-0.209104 -8.36006,4.856471 -3.77927,3.350573 -7.43947,6.776439 -8.13378,7.613035 C 108.31331,66.559434 106.03448,67 101.34224,67 h -6.605432 l -7.78341,-7.737764 c -6.55303,-6.514591 -8.05827,-7.565475 -9.52213,-6.647872 -3.3362,2.091261 -2.61956,4.967812 2.25174,9.03838 4.37364,3.65471 4.48909,3.879803 2.30681,4.497576 -1.26349,0.357676 -6.84321,0.695176 -12.39937,0.75 -11.93522,0.117768 -15.47179,1.79291 -19.14789,9.069641 -2.15555,4.266862 -2.25,5.509065 -2.25,29.592709 0,25.84899 0.41116,29.21712 4.23717,34.70997 2.39973,3.4452 8.65881,6.72736 12.82908,6.72736 2.16457,0 3.75934,0.77985 5.11241,2.5 2.71689,3.45396 7.03175,3.35494 9.63674,-0.22114 z M 61.392558,134.8 c -1.70979,-1.70979 -1.70979,-53.890206 0,-55.6 1.72329,-1.723286 78.876712,-1.723286 80.600002,0 1.70979,1.709794 1.70979,53.89021 0,55.6 -1.72329,1.72329 -78.876712,1.72329 -80.600002,0 z m 38.973102,-12.89264 c 1.47648,-0.79019 2.34407,-0.79019 3.13426,0 1.92926,1.92926 7.18892,1.25773 9.51133,-1.21436 3.06628,-3.26391 1.1244,-5.12294 -2.96712,-2.84052 -2.89939,1.6174 -3.00036,1.59367 -5.5225,-1.29778 l -2.56911,-2.94529 -1.96338,2.69529 c -2.175522,2.98651 -4.903762,3.47601 -6.779142,1.21631 -0.96224,-1.15943 -1.67887,-1.23739 -3.31677,-0.36081 -2.0517,1.09804 -2.03631,1.16058 0.85501,3.47402 3.19884,2.55949 6.41767,2.9856 9.617422,1.27314 z m -14.673102,-20.28199 6,-1.20966 -0.33426,-3.457857 c -0.18385,-1.901819 -0.63385,-3.718217 -1,-4.036441 -0.36616,-0.318223 -5.30325,0.293199 -10.97131,1.358716 l -10.30558,1.937303 0.67317,3.141284 c 0.37025,1.727705 0.88516,3.500375 1.14425,3.939265 0.49317,0.8354 4.72966,0.35642 14.79373,-1.67261 z M 133.64042,102.75 c 2.07442,-6.733505 2.44195,-6.374137 -8.70426,-8.510941 -5.63398,-1.080071 -10.54318,-1.688207 -10.90933,-1.351413 -0.36616,0.336795 -0.81616,2.161484 -1,4.054864 l -0.33427,3.44251 8.5,1.68462 c 10.79839,2.14013 11.97828,2.20462 12.44786,0.68036 z"
       id="path125" />
  </g>
</svg>
